{
    "asset" : {
        "generator" : "Khronos glTF Blender I/O v1.5.1",
        "version" : "2.0"
    },
    "scene" : 0,
    "scenes" : [
        {
            "name" : "Scene",
            "nodes" : [
                0
            ]
        }
    ],
    "nodes" : [
        {
            "mesh" : 0,
            "name" : "Knot.005",
            "rotation" : [
                -0.1124059334397316,
                -0.4664335548877716,
                0.31126970052719116,
                0.8203144669532776
            ]
        }
    ],
    "materials" : [
        {
            "doubleSided" : true,
            "name" : "Yellow",
            "pbrMetallicRoughness" : {
                "baseColorFactor" : [
                    0.9154499769210815,
                    1,
                    0.24636979401111603,
                    1
                ],
                "metallicFactor" : 0
            }
        }
    ],
    "meshes" : [
        {
            "name" : "Knot.006",
            "primitives" : [
                {
                    "attributes" : {
                        "POSITION" : 0,
                        "NORMAL" : 1,
                        "TEXCOORD_0" : 2
                    },
                    "indices" : 3,
                    "material" : 0
                }
            ]
        }
    ],
    "accessors" : [
        {
            "bufferView" : 0,
            "componentType" : 5126,
            "count" : 575,
            "max" : [
                1.8493188619613647,
                -1.6968797445297241,
                2.788109302520752
            ],
            "min" : [
                0.7499246001243591,
                -2.929481267929077,
                1.611539602279663
            ],
            "type" : "VEC3"
        },
        {
            "bufferView" : 1,
            "componentType" : 5126,
            "count" : 575,
            "type" : "VEC3"
        },
        {
            "bufferView" : 2,
            "componentType" : 5126,
            "count" : 575,
            "type" : "VEC2"
        },
        {
            "bufferView" : 3,
            "componentType" : 5123,
            "count" : 3132,
            "type" : "SCALAR"
        }
    ],
    "bufferViews" : [
        {
            "buffer" : 0,
            "byteLength" : 6900,
            "byteOffset" : 0
        },
        {
            "buffer" : 0,
            "byteLength" : 6900,
            "byteOffset" : 6900
        },
        {
            "buffer" : 0,
            "byteLength" : 4600,
            "byteOffset" : 13800
        },
        {
            "buffer" : 0,
            "byteLength" : 6264,
            "byteOffset" : 18400
        }
    ],
    "buffers" : [
        {
            "byteLength" : 24664,
            "uri" : "knot_sculpture_knot005.bin"
        }
    ]
}
